<svg width="28" height="26" viewBox="0 0 28 26" fill="none" xmlns="http://www.w3.org/2000/svg">
<path d="M11.25 23.3125C11.25 23.6833 11.14 24.0459 10.934 24.3542C10.728 24.6625 10.4351 24.9029 10.0925 25.0448C9.74992 25.1867 9.37292 25.2238 9.00921 25.1515C8.64549 25.0791 8.3114 24.9005 8.04918 24.6383C7.78695 24.3761 7.60837 24.042 7.53603 23.6783C7.46368 23.3146 7.50081 22.9376 7.64273 22.595C7.78464 22.2524 8.02496 21.9595 8.33331 21.7535C8.64165 21.5475 9.00416 21.4375 9.375 21.4375C9.87228 21.4375 10.3492 21.635 10.7008 21.9867C11.0525 22.3383 11.25 22.8152 11.25 23.3125ZM21.5625 21.4375C21.1917 21.4375 20.8291 21.5475 20.5208 21.7535C20.2125 21.9595 19.9721 22.2524 19.8302 22.595C19.6883 22.9376 19.6512 23.3146 19.7235 23.6783C19.7959 24.042 19.9745 24.3761 20.2367 24.6383C20.4989 24.9005 20.833 25.0791 21.1967 25.1515C21.5604 25.2238 21.9374 25.1867 22.28 25.0448C22.6226 24.9029 22.9155 24.6625 23.1215 24.3542C23.3275 24.0459 23.4375 23.6833 23.4375 23.3125C23.4375 22.8152 23.24 22.3383 22.8883 21.9867C22.5367 21.635 22.0598 21.4375 21.5625 21.4375ZM27.0047 5.88086C26.9175 5.76271 26.8038 5.66669 26.6727 5.60054C26.5416 5.53439 26.3968 5.49995 26.25 5.5H5.6625L4.71211 2.17187C4.59868 1.78087 4.36168 1.43712 4.03656 1.19207C3.71145 0.947017 3.31571 0.813851 2.90859 0.8125H0.9375C0.68886 0.8125 0.450403 0.911272 0.274587 1.08709C0.0987721 1.2629 0 1.50136 0 1.75C0 1.99864 0.0987721 2.2371 0.274587 2.41291C0.450403 2.58873 0.68886 2.6875 0.9375 2.6875H2.90859L7.14844 17.5223C7.31811 18.1088 7.67322 18.6246 8.16059 18.9924C8.64797 19.3602 9.24137 19.5602 9.85195 19.5625H21.1148C21.7168 19.5646 22.3034 19.3726 22.7877 19.015C23.2719 18.6574 23.628 18.1533 23.8031 17.5773L27.1465 6.71289C27.1895 6.57277 27.1991 6.42451 27.1745 6.28001C27.1499 6.13552 27.0917 5.99881 27.0047 5.88086Z" fill="#1DBF73"/>
</svg>
