<svg width="23" height="26" viewBox="0 0 23 26" fill="none" xmlns="http://www.w3.org/2000/svg">
<path d="M5.64185 12.1587C5.64185 9.13843 5.64185 7.62828 6.58013 6.69C7.51842 5.75171 9.02857 5.75171 12.0489 5.75171H15.2524C18.2727 5.75171 19.7828 5.75171 20.7211 6.69C21.6594 7.62828 21.6594 9.13843 21.6594 12.1587V17.4979C21.6594 20.5182 21.6594 22.0283 20.7211 22.9666C19.7828 23.9049 18.2727 23.905 15.2524 23.905H12.0489C9.02857 23.905 7.51842 23.9049 6.58013 22.9666C5.64185 22.0283 5.64185 20.5182 5.64185 17.4979V12.1587Z" stroke="#4F4F4F" stroke-width="2.3"/>
<path d="M5.01675 20.0763C3.2475 20.0763 1.81323 18.6421 1.81323 16.8728V10.4658C1.81323 6.43873 1.81323 4.4252 3.06428 3.17414C4.31534 1.9231 6.32886 1.9231 10.3559 1.9231H14.6273C16.3966 1.9231 17.8308 3.35736 17.8308 5.12661" stroke="#4F4F4F" stroke-width="2.3"/>
</svg>
