<svg width="21" height="19" viewBox="0 0 21 19" fill="none" xmlns="http://www.w3.org/2000/svg">
<path d="M8.9375 8.71875C8.9375 9.02778 8.84586 9.32988 8.67417 9.58683C8.50248 9.84378 8.25845 10.0441 7.97294 10.1623C7.68743 10.2806 7.37327 10.3115 7.07017 10.2512C6.76708 10.1909 6.48867 10.0421 6.27015 9.8236C6.05163 9.60508 5.90281 9.32667 5.84252 9.02358C5.78223 8.72048 5.81318 8.40632 5.93144 8.12081C6.0497 7.8353 6.24997 7.59127 6.50692 7.41958C6.76387 7.24789 7.06597 7.15625 7.375 7.15625C7.7894 7.15625 8.18683 7.32087 8.47985 7.6139C8.77288 7.90692 8.9375 8.30435 8.9375 8.71875ZM20.6562 2.46875V16.5312C20.6562 16.9457 20.4916 17.3431 20.1986 17.6361C19.9056 17.9291 19.5082 18.0938 19.0938 18.0938H1.90625C1.49185 18.0938 1.09442 17.9291 0.801396 17.6361C0.50837 17.3431 0.34375 16.9457 0.34375 16.5312V2.46875C0.34375 2.05435 0.50837 1.65692 0.801396 1.3639C1.09442 1.07087 1.49185 0.90625 1.90625 0.90625H19.0938C19.5082 0.90625 19.9056 1.07087 20.1986 1.3639C20.4916 1.65692 20.6562 2.05435 20.6562 2.46875ZM11.2568 13.2109C11.004 12.267 10.4046 11.4531 9.57812 10.9316C10.017 10.4953 10.3165 9.93856 10.4386 9.33186C10.5607 8.72517 10.4999 8.09588 10.2639 7.52378C10.0279 6.95168 9.6274 6.46252 9.11309 6.11832C8.59878 5.77412 7.99386 5.59037 7.375 5.59037C6.75614 5.59037 6.15122 5.77412 5.63691 6.11832C5.1226 6.46252 4.72208 6.95168 4.4861 7.52378C4.25012 8.09588 4.18933 8.72517 4.31141 9.33186C4.4335 9.93856 4.73298 10.4953 5.17188 10.9316C4.34595 11.4537 3.74668 12.2673 3.49316 13.2109C3.44136 13.4117 3.47142 13.6247 3.57673 13.8033C3.68204 13.9819 3.85396 14.1113 4.05469 14.1631C4.25541 14.2149 4.46849 14.1848 4.64706 14.0795C4.82562 13.9742 4.95504 13.8023 5.00684 13.6016C5.26465 12.6006 6.28223 11.8438 7.375 11.8438C8.46777 11.8438 9.48633 12.5986 9.74316 13.6016C9.79496 13.8023 9.92438 13.9742 10.1029 14.0795C10.2815 14.1848 10.4946 14.2149 10.6953 14.1631C10.896 14.1113 11.068 13.9819 11.1733 13.8033C11.2786 13.6247 11.3086 13.4117 11.2568 13.2109ZM17.5312 11.0625C17.5312 10.8553 17.4489 10.6566 17.3024 10.5101C17.1559 10.3636 16.9572 10.2812 16.75 10.2812H12.8438C12.6365 10.2812 12.4378 10.3636 12.2913 10.5101C12.1448 10.6566 12.0625 10.8553 12.0625 11.0625C12.0625 11.2697 12.1448 11.4684 12.2913 11.6149C12.4378 11.7614 12.6365 11.8438 12.8438 11.8438H16.75C16.9572 11.8438 17.1559 11.7614 17.3024 11.6149C17.4489 11.4684 17.5312 11.2697 17.5312 11.0625ZM17.5312 7.9375C17.5312 7.7303 17.4489 7.53159 17.3024 7.38507C17.1559 7.23856 16.9572 7.15625 16.75 7.15625H12.8438C12.6365 7.15625 12.4378 7.23856 12.2913 7.38507C12.1448 7.53159 12.0625 7.7303 12.0625 7.9375C12.0625 8.1447 12.1448 8.34341 12.2913 8.48993C12.4378 8.63644 12.6365 8.71875 12.8438 8.71875H16.75C16.9572 8.71875 17.1559 8.63644 17.3024 8.48993C17.4489 8.34341 17.5312 8.1447 17.5312 7.9375Z" fill="#1DBF73"/>
</svg>
