<svg width="20" height="19" viewBox="0 0 20 19" fill="none" xmlns="http://www.w3.org/2000/svg">
<path d="M12.834 10.0527L8.92773 13.959C8.81847 14.0684 8.67921 14.1429 8.52758 14.1731C8.37595 14.2033 8.21878 14.1878 8.07594 14.1286C7.93311 14.0694 7.81106 13.9692 7.72522 13.8406C7.63938 13.712 7.59363 13.5609 7.59375 13.4062V10.2812H1.34375C1.13655 10.2812 0.937836 10.1989 0.791323 10.0524C0.64481 9.90592 0.5625 9.7072 0.5625 9.5C0.5625 9.2928 0.64481 9.09409 0.791323 8.94757C0.937836 8.80106 1.13655 8.71875 1.34375 8.71875H7.59375V5.59375C7.59363 5.43914 7.63938 5.28798 7.72522 5.15939C7.81106 5.0308 7.93311 4.93057 8.07594 4.87139C8.21878 4.81221 8.37595 4.79673 8.52758 4.82693C8.67921 4.85713 8.81847 4.93163 8.92773 5.04102L12.834 8.94727C12.9066 9.01982 12.9642 9.10599 13.0036 9.20083C13.0429 9.29567 13.0631 9.39733 13.0631 9.5C13.0631 9.60267 13.0429 9.70433 13.0036 9.79917C12.9642 9.89401 12.9066 9.98018 12.834 10.0527ZM17.75 0.125H12.2812C12.074 0.125 11.8753 0.20731 11.7288 0.353823C11.5823 0.500336 11.5 0.69905 11.5 0.90625C11.5 1.11345 11.5823 1.31216 11.7288 1.45868C11.8753 1.60519 12.074 1.6875 12.2812 1.6875H17.75V17.3125H12.2812C12.074 17.3125 11.8753 17.3948 11.7288 17.5413C11.5823 17.6878 11.5 17.8865 11.5 18.0938C11.5 18.301 11.5823 18.4997 11.7288 18.6462C11.8753 18.7927 12.074 18.875 12.2812 18.875H17.75C18.1644 18.875 18.5618 18.7104 18.8549 18.4174C19.1479 18.1243 19.3125 17.7269 19.3125 17.3125V1.6875C19.3125 1.2731 19.1479 0.875671 18.8549 0.582646C18.5618 0.28962 18.1644 0.125 17.75 0.125Z" fill="#1DBF73"/>
</svg>
